<svg xmlns="http://www.w3.org/2000/svg" width="980" height="480" viewBox="0 0 980 480">
  <rect width="100%" height="100%" fill="white"/>
  <style>
    text { font-family: Arial, Helvetica, sans-serif; fill: #202020; }
    .title { font-size: 18px; font-weight: 700; }
    .axis { font-size: 13px; }
    .tick { font-size: 12px; fill: #444; }
    .label { font-size: 12px; }
    .legend { font-size: 13px; }
    .note { font-size: 11px; fill: #555; }
  </style>
<text x="490.0" y="32.0" class="title" text-anchor="middle">Package Energy per Completed Run</text>
<rect x="365.0" y="52.0" width="14.0" height="14.0" fill="#00796B" stroke="none"/>
<text x="385.0" y="64.0" class="legend" text-anchor="start">Apple M3</text>
<rect x="475.0" y="52.0" width="14.0" height="14.0" fill="#D55E00" stroke="none"/>
<text x="495.0" y="64.0" class="legend" text-anchor="start">Ryzen 7 3750H</text>
<text x="257.5" y="107.0" class="axis" text-anchor="middle" font-weight="700">fib(40)</text>
<line x1="90.0" y1="127.0" x2="90.0" y2="372.0" stroke="#404040" stroke-width="1"/>
<line x1="90.0" y1="372.0" x2="460.0" y2="372.0" stroke="#404040" stroke-width="1"/>
<line x1="90.0" y1="372.0" x2="460.0" y2="372.0" stroke="#D8D8D8" stroke-width="1"/>
<text x="82.0" y="376.0" class="tick" text-anchor="end">0</text>
<line x1="90.0" y1="302.0" x2="460.0" y2="302.0" stroke="#D8D8D8" stroke-width="1"/>
<text x="82.0" y="306.0" class="tick" text-anchor="end">1</text>
<line x1="90.0" y1="232.0" x2="460.0" y2="232.0" stroke="#D8D8D8" stroke-width="1"/>
<text x="82.0" y="236.0" class="tick" text-anchor="end">2</text>
<line x1="90.0" y1="162.0" x2="460.0" y2="162.0" stroke="#D8D8D8" stroke-width="1"/>
<text x="82.0" y="166.0" class="tick" text-anchor="end">3</text>
<text x="48.0" y="249.5" class="axis" text-anchor="middle" transform="rotate(-90 48.0 249.5)">Energy (J)</text>
<rect x="212.0" y="335.3" width="52.0" height="36.7" fill="#00796B" stroke="none"/>
<text x="238.0" y="327.3" class="label" text-anchor="middle">0.524</text>
<text x="238.0" y="390.0" class="tick" text-anchor="middle">Apple</text>
<rect x="286.0" y="158.5" width="52.0" height="213.5" fill="#D55E00" stroke="none"/>
<text x="312.0" y="150.5" class="label" text-anchor="middle">3.05</text>
<text x="312.0" y="390.0" class="tick" text-anchor="middle">Ryzen</text>
<text x="722.5" y="107.0" class="axis" text-anchor="middle" font-weight="700">matmul 256x256</text>
<line x1="555.0" y1="127.0" x2="555.0" y2="372.0" stroke="#404040" stroke-width="1"/>
<line x1="555.0" y1="372.0" x2="925.0" y2="372.0" stroke="#404040" stroke-width="1"/>
<line x1="555.0" y1="372.0" x2="925.0" y2="372.0" stroke="#D8D8D8" stroke-width="1"/>
<text x="547.0" y="376.0" class="tick" text-anchor="end">0</text>
<line x1="555.0" y1="313.7" x2="925.0" y2="313.7" stroke="#D8D8D8" stroke-width="1"/>
<text x="547.0" y="317.7" class="tick" text-anchor="end">0.05</text>
<line x1="555.0" y1="255.3" x2="925.0" y2="255.3" stroke="#D8D8D8" stroke-width="1"/>
<text x="547.0" y="259.3" class="tick" text-anchor="end">0.1</text>
<line x1="555.0" y1="197.0" x2="925.0" y2="197.0" stroke="#D8D8D8" stroke-width="1"/>
<text x="547.0" y="201.0" class="tick" text-anchor="end">0.15</text>
<line x1="555.0" y1="138.7" x2="925.0" y2="138.7" stroke="#D8D8D8" stroke-width="1"/>
<text x="547.0" y="142.7" class="tick" text-anchor="end">0.2</text>
<text x="513.0" y="249.5" class="axis" text-anchor="middle" transform="rotate(-90 513.0 249.5)">Energy (J)</text>
<rect x="677.0" y="339.1" width="52.0" height="32.9" fill="#00796B" stroke="none"/>
<text x="703.0" y="331.1" class="label" text-anchor="middle">0.0282</text>
<text x="703.0" y="390.0" class="tick" text-anchor="middle">Apple</text>
<rect x="751.0" y="162.0" width="52.0" height="210.0" fill="#D55E00" stroke="none"/>
<text x="777.0" y="154.0" class="label" text-anchor="middle">0.18</text>
<text x="777.0" y="390.0" class="tick" text-anchor="middle">Ryzen</text>
<text x="490.0" y="455.0" class="note" text-anchor="middle">Apple values are point estimates from delta CPU power x mean runtime; Ryzen values are package-energy counter readings.</text>
</svg>
