<svg xmlns="http://www.w3.org/2000/svg" width="980" height="480" viewBox="0 0 980 480">
  <rect width="100%" height="100%" fill="white"/>
  <style>
    text { font-family: Arial, Helvetica, sans-serif; fill: #202020; }
    .title { font-size: 18px; font-weight: 700; }
    .axis { font-size: 13px; }
    .tick { font-size: 12px; fill: #444; }
    .label { font-size: 12px; }
    .legend { font-size: 13px; }
    .note { font-size: 11px; fill: #555; }
  </style>
<text x="490.0" y="32.0" class="title" text-anchor="middle">Execution Time by Benchmark</text>
<rect x="365.0" y="52.0" width="14.0" height="14.0" fill="#00796B" stroke="none"/>
<text x="385.0" y="64.0" class="legend" text-anchor="start">Apple M3</text>
<rect x="475.0" y="52.0" width="14.0" height="14.0" fill="#D55E00" stroke="none"/>
<text x="495.0" y="64.0" class="legend" text-anchor="start">Ryzen 7 3750H</text>
<text x="257.5" y="107.0" class="axis" text-anchor="middle" font-weight="700">fib(40)</text>
<line x1="90.0" y1="127.0" x2="90.0" y2="372.0" stroke="#404040" stroke-width="1"/>
<line x1="90.0" y1="372.0" x2="460.0" y2="372.0" stroke="#404040" stroke-width="1"/>
<line x1="90.0" y1="372.0" x2="460.0" y2="372.0" stroke="#D8D8D8" stroke-width="1"/>
<text x="82.0" y="376.0" class="tick" text-anchor="end">0</text>
<line x1="90.0" y1="315.5" x2="460.0" y2="315.5" stroke="#D8D8D8" stroke-width="1"/>
<text x="82.0" y="319.5" class="tick" text-anchor="end">150</text>
<line x1="90.0" y1="258.9" x2="460.0" y2="258.9" stroke="#D8D8D8" stroke-width="1"/>
<text x="82.0" y="262.9" class="tick" text-anchor="end">300</text>
<line x1="90.0" y1="202.4" x2="460.0" y2="202.4" stroke="#D8D8D8" stroke-width="1"/>
<text x="82.0" y="206.4" class="tick" text-anchor="end">450</text>
<line x1="90.0" y1="145.8" x2="460.0" y2="145.8" stroke="#D8D8D8" stroke-width="1"/>
<text x="82.0" y="149.8" class="tick" text-anchor="end">600</text>
<text x="48.0" y="249.5" class="axis" text-anchor="middle" transform="rotate(-90 48.0 249.5)">Time (ms)</text>
<rect x="212.0" y="152.0" width="52.0" height="220.0" fill="#00796B" stroke="none"/>
<line x1="238.0" y1="150.1" x2="238.0" y2="154.0" stroke="#111" stroke-width="1.3"/>
<line x1="230.0" y1="150.1" x2="246.0" y2="150.1" stroke="#111" stroke-width="1.3"/>
<line x1="230.0" y1="154.0" x2="246.0" y2="154.0" stroke="#111" stroke-width="1.3"/>
<text x="238.0" y="144.0" class="label" text-anchor="middle">583.6</text>
<text x="238.0" y="390.0" class="tick" text-anchor="middle">Apple</text>
<rect x="286.0" y="193.0" width="52.0" height="179.0" fill="#D55E00" stroke="none"/>
<line x1="312.0" y1="192.7" x2="312.0" y2="193.4" stroke="#111" stroke-width="1.3"/>
<line x1="304.0" y1="192.7" x2="320.0" y2="192.7" stroke="#111" stroke-width="1.3"/>
<line x1="304.0" y1="193.4" x2="320.0" y2="193.4" stroke="#111" stroke-width="1.3"/>
<text x="312.0" y="185.0" class="label" text-anchor="middle">474.8</text>
<text x="312.0" y="390.0" class="tick" text-anchor="middle">Ryzen</text>
<text x="722.5" y="107.0" class="axis" text-anchor="middle" font-weight="700">matmul 256x256</text>
<line x1="555.0" y1="127.0" x2="555.0" y2="372.0" stroke="#404040" stroke-width="1"/>
<line x1="555.0" y1="372.0" x2="925.0" y2="372.0" stroke="#404040" stroke-width="1"/>
<line x1="555.0" y1="372.0" x2="925.0" y2="372.0" stroke="#D8D8D8" stroke-width="1"/>
<text x="547.0" y="376.0" class="tick" text-anchor="end">0</text>
<line x1="555.0" y1="310.8" x2="925.0" y2="310.8" stroke="#D8D8D8" stroke-width="1"/>
<text x="547.0" y="314.8" class="tick" text-anchor="end">8</text>
<line x1="555.0" y1="249.5" x2="925.0" y2="249.5" stroke="#D8D8D8" stroke-width="1"/>
<text x="547.0" y="253.5" class="tick" text-anchor="end">16</text>
<line x1="555.0" y1="188.2" x2="925.0" y2="188.2" stroke="#D8D8D8" stroke-width="1"/>
<text x="547.0" y="192.2" class="tick" text-anchor="end">24</text>
<line x1="555.0" y1="127.0" x2="925.0" y2="127.0" stroke="#D8D8D8" stroke-width="1"/>
<text x="547.0" y="131.0" class="tick" text-anchor="end">32</text>
<text x="513.0" y="249.5" class="axis" text-anchor="middle" transform="rotate(-90 513.0 249.5)">Time (ms)</text>
<rect x="677.0" y="172.9" width="52.0" height="199.1" fill="#00796B" stroke="none"/>
<line x1="703.0" y1="172.5" x2="703.0" y2="173.4" stroke="#111" stroke-width="1.3"/>
<line x1="695.0" y1="172.5" x2="711.0" y2="172.5" stroke="#111" stroke-width="1.3"/>
<line x1="695.0" y1="173.4" x2="711.0" y2="173.4" stroke="#111" stroke-width="1.3"/>
<text x="703.0" y="164.9" class="label" text-anchor="middle">26.0</text>
<text x="703.0" y="390.0" class="tick" text-anchor="middle">Apple</text>
<rect x="751.0" y="169.9" width="52.0" height="202.1" fill="#D55E00" stroke="none"/>
<line x1="777.0" y1="163.3" x2="777.0" y2="176.5" stroke="#111" stroke-width="1.3"/>
<line x1="769.0" y1="163.3" x2="785.0" y2="163.3" stroke="#111" stroke-width="1.3"/>
<line x1="769.0" y1="176.5" x2="785.0" y2="176.5" stroke="#111" stroke-width="1.3"/>
<text x="777.0" y="161.9" class="label" text-anchor="middle">26.4</text>
<text x="777.0" y="390.0" class="tick" text-anchor="middle">Ryzen</text>
<text x="490.0" y="455.0" class="note" text-anchor="middle">Error bars show 95% confidence intervals over 100 measured runs.</text>
</svg>
